<?xml version="1.0" encoding="utf-8"?>
<!-- Generator: Adobe Illustrator 25.2.0, SVG Export Plug-In . SVG Version: 6.00 Build 0)  -->
<svg version="1.1" id="Слой_1" xmlns="http://www.w3.org/2000/svg" xmlns:xlink="http://www.w3.org/1999/xlink" x="0px" y="0px"
	 viewBox="0 0 50 50" style="enable-background:new 0 0 50 50;" xml:space="preserve">
<style type="text/css">
	.st0{fill:#F08184;}
	.st1{fill:#FFFFFF;}
</style>
<path class="st0" d="M18.5,9.4h12.6c5.5,0,9.9,4.4,9.9,9.9v12.6c0,5.5-4.4,9.9-9.9,9.9H18.5c-5.5,0-9.9-4.4-9.9-9.9V19.3
	C8.6,13.8,13.1,9.4,18.5,9.4z"/>
<path class="st1" d="M19.5,21.5v9.2c0,0.5,0.2,1.1,0.5,1.4c0.3,0.4,0.8,0.6,1.3,0.6h7.1c0.5,0,1-0.2,1.3-0.6
	c0.3-0.4,0.5-0.9,0.5-1.4v-9.2c0.7-0.2,1.1-0.9,1.1-1.6c-0.1-0.7-0.7-1.2-1.4-1.2h-1.9v-0.5c0-0.4-0.2-0.8-0.4-1.1
	c-0.3-0.3-0.7-0.4-1.1-0.4h-3.3c-0.4,0-0.8,0.2-1.1,0.4c-0.3,0.3-0.4,0.7-0.4,1.1v0.5h-1.9c-0.7,0-1.3,0.5-1.4,1.2
	C18.3,20.7,18.8,21.3,19.5,21.5z M28.4,32h-7.1c-0.6,0-1.1-0.6-1.1-1.3v-9.2h9.4v9.2C29.6,31.5,29.1,32,28.4,32z M22.5,18.2
	c0-0.2,0.1-0.4,0.2-0.5c0.1-0.1,0.3-0.2,0.5-0.2h3.3c0.2,0,0.4,0.1,0.5,0.2c0.1,0.1,0.2,0.3,0.2,0.5v0.5h-4.8V18.2z M19.8,19.5H30
	c0.4,0,0.7,0.3,0.7,0.7c0,0.4-0.3,0.7-0.7,0.7H19.8c-0.4,0-0.7-0.3-0.7-0.7C19.2,19.8,19.5,19.5,19.8,19.5z"/>
<path class="st1" d="M22.5,22.6c-0.2,0-0.4,0.2-0.4,0.4V30c0,0.2,0.2,0.4,0.4,0.4c0.2,0,0.4-0.2,0.4-0.4v-7.1
	C22.9,22.7,22.7,22.6,22.5,22.6z"/>
<path class="st1" d="M24.8,22.6c-0.2,0-0.4,0.2-0.4,0.4V30c0,0.2,0.2,0.4,0.4,0.4c0.2,0,0.4-0.2,0.4-0.4v-7.1
	C25.2,22.7,25,22.6,24.8,22.6z"/>
<path class="st1" d="M27.1,22.6c-0.2,0-0.4,0.2-0.4,0.4V30c0,0.2,0.2,0.4,0.4,0.4c0.2,0,0.4-0.2,0.4-0.4v-7.1
	C27.4,22.7,27.3,22.6,27.1,22.6z"/>
</svg>
